<svg width="20" height="20" viewBox="0 0 20 20" fill="none" xmlns="http://www.w3.org/2000/svg">
<path d="M10 11.1667L5.91667 15.25C5.76389 15.4028 5.56944 15.4792 5.33333 15.4792C5.09722 15.4792 4.90278 15.4028 4.75 15.25C4.59722 15.0973 4.52083 14.9028 4.52083 14.6667C4.52083 14.4306 4.59722 14.2362 4.75 14.0834L8.83333 10L4.75 5.91671C4.59722 5.76393 4.52083 5.56949 4.52083 5.33337C4.52083 5.09726 4.59722 4.90282 4.75 4.75004C4.90278 4.59726 5.09722 4.52087 5.33333 4.52087C5.56944 4.52087 5.76389 4.59726 5.91667 4.75004L10 8.83337L14.0833 4.75004C14.2361 4.59726 14.4306 4.52087 14.6667 4.52087C14.9028 4.52087 15.0972 4.59726 15.25 4.75004C15.4028 4.90282 15.4792 5.09726 15.4792 5.33337C15.4792 5.56949 15.4028 5.76393 15.25 5.91671L11.1667 10L15.25 14.0834C15.4028 14.2362 15.4792 14.4306 15.4792 14.6667C15.4792 14.9028 15.4028 15.0973 15.25 15.25C15.0972 15.4028 14.9028 15.4792 14.6667 15.4792C14.4306 15.4792 14.2361 15.4028 14.0833 15.25L10 11.1667Z" fill="#252527"/>
</svg>
