<svg width="20" height="20" viewBox="0 0 20 20" fill="none" xmlns="http://www.w3.org/2000/svg">
<path d="M8.99998 9.99999L12.25 13.25C12.4028 13.4028 12.4791 13.5972 12.4791 13.8333C12.4791 14.0694 12.4028 14.2639 12.25 14.4167C12.0972 14.5694 11.9028 14.6458 11.6666 14.6458C11.4305 14.6458 11.2361 14.5694 11.0833 14.4167L7.24998 10.5833C7.16665 10.5 7.10762 10.4097 7.0729 10.3125C7.03817 10.2153 7.02081 10.1111 7.02081 9.99999C7.02081 9.88888 7.03817 9.78471 7.0729 9.68749C7.10762 9.59027 7.16665 9.49999 7.24998 9.41666L11.0833 5.58332C11.2361 5.43055 11.4305 5.35416 11.6666 5.35416C11.9028 5.35416 12.0972 5.43055 12.25 5.58332C12.4028 5.7361 12.4791 5.93055 12.4791 6.16666C12.4791 6.40277 12.4028 6.59721 12.25 6.74999L8.99998 9.99999Z" fill="#252527"/>
</svg>
