<svg width="19" height="18" viewBox="0 0 19 18" fill="none" xmlns="http://www.w3.org/2000/svg">
<path d="M14.8333 17.3333C14.375 17.3333 13.9826 17.1701 13.6562 16.8437C13.3299 16.5173 13.1667 16.125 13.1667 15.6666V14.75C12.2083 14.5555 11.4132 14.0798 10.7812 13.3229C10.1493 12.5659 9.83332 11.6805 9.83332 10.6666V6.49996C9.83332 6.04163 9.99305 5.64926 10.3125 5.32288C10.6319 4.99649 11.0278 4.83329 11.5 4.83329H16.5C16.9583 4.83329 17.3507 4.99649 17.6771 5.32288C18.0035 5.64926 18.1667 6.04163 18.1667 6.49996V10.6666C18.1667 11.6805 17.8507 12.5659 17.2187 13.3229C16.5868 14.0798 15.7917 14.5555 14.8333 14.75V15.6666H16.5C16.7361 15.6666 16.934 15.7465 17.0937 15.9062C17.2535 16.0659 17.3333 16.2638 17.3333 16.5C17.3333 16.7361 17.2535 16.934 17.0937 17.0937C16.934 17.2534 16.7361 17.3333 16.5 17.3333H14.8333ZM15.4583 9.83329H16.5V6.49996H11.5V8.16663H12.125C12.5833 8.16663 13.0174 8.27079 13.4271 8.47913C13.8368 8.68746 14.1805 8.97218 14.4583 9.33329C14.5694 9.49996 14.7153 9.62496 14.8958 9.70829C15.0764 9.79163 15.2639 9.83329 15.4583 9.83329ZM3.99999 13.1666H3.16666C2.70832 13.1666 2.31596 13.0034 1.98957 12.677C1.66318 12.3507 1.49999 11.9583 1.49999 11.5V5.24996C1.26388 5.24996 1.06596 5.1701 0.90624 5.01038C0.746518 4.85065 0.666656 4.65274 0.666656 4.41663C0.666656 4.18052 0.746518 3.9826 0.90624 3.82288C1.06596 3.66315 1.26388 3.58329 1.49999 3.58329H3.99999V2.33329H3.58332C3.34721 2.33329 3.1493 2.25343 2.98957 2.09371C2.82985 1.93399 2.74999 1.73607 2.74999 1.49996C2.74999 1.26385 2.82985 1.06593 2.98957 0.906209C3.1493 0.746487 3.34721 0.666626 3.58332 0.666626H6.08332C6.31943 0.666626 6.51735 0.746487 6.67707 0.906209C6.8368 1.06593 6.91666 1.26385 6.91666 1.49996C6.91666 1.73607 6.8368 1.93399 6.67707 2.09371C6.51735 2.25343 6.31943 2.33329 6.08332 2.33329H5.66666V3.58329H8.16666C8.40277 3.58329 8.60068 3.66315 8.76041 3.82288C8.92013 3.9826 8.99999 4.18052 8.99999 4.41663C8.99999 4.65274 8.92013 4.85065 8.76041 5.01038C8.60068 5.1701 8.40277 5.24996 8.16666 5.24996V11.5C8.16666 11.9583 8.00346 12.3507 7.67707 12.677C7.35068 13.0034 6.95832 13.1666 6.49999 13.1666H5.66666V16.9166C5.66666 17.0833 5.59027 17.2083 5.43749 17.2916C5.28471 17.375 5.13888 17.3611 4.99999 17.25L4.33332 16.75C4.22221 16.6666 4.13888 16.5694 4.08332 16.4583C4.02777 16.3472 3.99999 16.2222 3.99999 16.0833V13.1666ZM3.16666 11.5H6.49999V10.25H5.04166C4.87499 10.25 4.72916 10.1875 4.60416 10.0625C4.47916 9.93746 4.41666 9.79163 4.41666 9.62496C4.41666 9.45829 4.47916 9.31246 4.60416 9.18746C4.72916 9.06246 4.87499 8.99996 5.04166 8.99996H6.49999V7.74996H5.04166C4.87499 7.74996 4.72916 7.68746 4.60416 7.56246C4.47916 7.43746 4.41666 7.29163 4.41666 7.12496C4.41666 6.95829 4.47916 6.81246 4.60416 6.68746C4.72916 6.56246 4.87499 6.49996 5.04166 6.49996H6.49999V5.24996H3.16666V11.5Z" fill="#252527"/>
</svg>
