<svg width="16" height="18" viewBox="0 0 16 18" fill="none" xmlns="http://www.w3.org/2000/svg">
<path d="M2.16667 17.3333C1.70833 17.3333 1.31597 17.1701 0.989583 16.8437C0.663194 16.5174 0.5 16.125 0.5 15.6667V3.99999C0.5 3.54166 0.663194 3.1493 0.989583 2.82291C1.31597 2.49652 1.70833 2.33332 2.16667 2.33332H3V1.49999C3 1.26388 3.07986 1.06596 3.23958 0.90624C3.39931 0.746518 3.59722 0.666656 3.83333 0.666656C4.06944 0.666656 4.26736 0.746518 4.42708 0.90624C4.58681 1.06596 4.66667 1.26388 4.66667 1.49999V2.33332H11.3333V1.49999C11.3333 1.26388 11.4132 1.06596 11.5729 0.90624C11.7326 0.746518 11.9306 0.666656 12.1667 0.666656C12.4028 0.666656 12.6007 0.746518 12.7604 0.90624C12.9201 1.06596 13 1.26388 13 1.49999V2.33332H13.8333C14.2917 2.33332 14.684 2.49652 15.0104 2.82291C15.3368 3.1493 15.5 3.54166 15.5 3.99999V15.6667C15.5 16.125 15.3368 16.5174 15.0104 16.8437C14.684 17.1701 14.2917 17.3333 13.8333 17.3333H2.16667ZM2.16667 15.6667H13.8333V7.33332H2.16667V15.6667Z" fill="#252527"/>
</svg>
