<svg width="14" height="14" viewBox="0 0 14 14" fill="none" xmlns="http://www.w3.org/2000/svg">
<path d="M7.00001 7.00004C6.08334 7.00004 5.29862 6.67365 4.64584 6.02087C3.99307 5.3681 3.66668 4.58337 3.66668 3.66671C3.66668 2.75004 3.99307 1.96532 4.64584 1.31254C5.29862 0.659763 6.08334 0.333374 7.00001 0.333374C7.91668 0.333374 8.7014 0.659763 9.35418 1.31254C10.007 1.96532 10.3333 2.75004 10.3333 3.66671C10.3333 4.58337 10.007 5.3681 9.35418 6.02087C8.7014 6.67365 7.91668 7.00004 7.00001 7.00004ZM0.333344 12V11.3334C0.333344 10.8612 0.454871 10.4271 0.697927 10.0313C0.940982 9.63546 1.2639 9.33337 1.66668 9.12504C2.52779 8.69448 3.40279 8.37157 4.29168 8.15629C5.18057 7.94101 6.08334 7.83337 7.00001 7.83337C7.91668 7.83337 8.81945 7.94101 9.70834 8.15629C10.5972 8.37157 11.4722 8.69448 12.3333 9.12504C12.7361 9.33337 13.059 9.63546 13.3021 10.0313C13.5451 10.4271 13.6667 10.8612 13.6667 11.3334V12C13.6667 12.4584 13.5035 12.8507 13.1771 13.1771C12.8507 13.5035 12.4583 13.6667 12 13.6667H2.00001C1.54168 13.6667 1.14932 13.5035 0.822927 13.1771C0.496538 12.8507 0.333344 12.4584 0.333344 12Z" fill="#252527"/>
</svg>
