<svg width="17" height="18" viewBox="0 0 17 18" fill="none" xmlns="http://www.w3.org/2000/svg">
<path d="M12.1667 14.8333H10.5C10.2639 14.8333 10.066 14.7534 9.90625 14.5937C9.74653 14.434 9.66667 14.2361 9.66667 14C9.66667 13.7639 9.74653 13.5659 9.90625 13.4062C10.066 13.2465 10.2639 13.1666 10.5 13.1666H12.1667V11.5C12.1667 11.2638 12.2465 11.0659 12.4062 10.9062C12.566 10.7465 12.7639 10.6666 13 10.6666C13.2361 10.6666 13.434 10.7465 13.5938 10.9062C13.7535 11.0659 13.8333 11.2638 13.8333 11.5V13.1666H15.5C15.7361 13.1666 15.934 13.2465 16.0938 13.4062C16.2535 13.5659 16.3333 13.7639 16.3333 14C16.3333 14.2361 16.2535 14.434 16.0938 14.5937C15.934 14.7534 15.7361 14.8333 15.5 14.8333H13.8333V16.5C13.8333 16.7361 13.7535 16.934 13.5938 17.0937C13.434 17.2534 13.2361 17.3333 13 17.3333C12.7639 17.3333 12.566 17.2534 12.4062 17.0937C12.2465 16.934 12.1667 16.7361 12.1667 16.5V14.8333ZM2.16667 15.6666C1.70833 15.6666 1.31597 15.5034 0.989583 15.177C0.663194 14.8507 0.5 14.4583 0.5 14V3.99996C0.5 3.54163 0.663194 3.14927 0.989583 2.82288C1.31597 2.49649 1.70833 2.33329 2.16667 2.33329H3V1.49996C3 1.26385 3.07986 1.06593 3.23958 0.906209C3.39931 0.746487 3.59722 0.666626 3.83333 0.666626C4.06944 0.666626 4.26736 0.746487 4.42708 0.906209C4.58681 1.06593 4.66667 1.26385 4.66667 1.49996V2.33329H9.66667V1.49996C9.66667 1.26385 9.74653 1.06593 9.90625 0.906209C10.066 0.746487 10.2639 0.666626 10.5 0.666626C10.7361 0.666626 10.934 0.746487 11.0938 0.906209C11.2535 1.06593 11.3333 1.26385 11.3333 1.49996V2.33329H12.1667C12.625 2.33329 13.0174 2.49649 13.3438 2.82288C13.6701 3.14927 13.8333 3.54163 13.8333 3.99996V8.16663C13.8333 8.40274 13.7535 8.60065 13.5938 8.76038C13.434 8.9201 13.2361 8.99996 13 8.99996C12.7639 8.99996 12.566 8.9201 12.4062 8.76038C12.2465 8.60065 12.1667 8.40274 12.1667 8.16663V7.33329H2.16667V14H7.16667C7.40278 14 7.60069 14.0798 7.76042 14.2395C7.92014 14.3993 8 14.5972 8 14.8333C8 15.0694 7.92014 15.2673 7.76042 15.427C7.60069 15.5868 7.40278 15.6666 7.16667 15.6666H2.16667Z" fill="#252527"/>
</svg>
