<svg width="9" height="9" viewBox="0 0 9 9" fill="none" xmlns="http://www.w3.org/2000/svg">
<path d="M7.66667 2.60004L1.73334 8.53337C1.61111 8.6556 1.45556 8.71671 1.26667 8.71671C1.07778 8.71671 0.922224 8.6556 0.800002 8.53337C0.67778 8.41115 0.616669 8.2556 0.616669 8.06671C0.616669 7.87782 0.67778 7.72226 0.800002 7.60004L6.73334 1.66671H1.66667C1.47778 1.66671 1.31945 1.60282 1.19167 1.47504C1.06389 1.34726 1 1.18893 1 1.00004C1 0.811152 1.06389 0.652818 1.19167 0.525041C1.31945 0.397263 1.47778 0.333374 1.66667 0.333374H8.33333C8.52222 0.333374 8.68056 0.397263 8.80834 0.525041C8.93611 0.652818 9 0.811152 9 1.00004V7.66671C9 7.8556 8.93611 8.01393 8.80834 8.14171C8.68056 8.26948 8.52222 8.33337 8.33333 8.33337C8.14445 8.33337 7.98611 8.26948 7.85834 8.14171C7.73056 8.01393 7.66667 7.8556 7.66667 7.66671V2.60004Z" fill="#043540"/>
</svg>
